<?xml version="1.0" encoding="UTF-8" standalone="no"?>
<!-- Created with Inkscape (http://www.inkscape.org/) -->

<svg
   width="390.69"
   height="31.92"
   viewBox="0 0 103.37047 8.4455037"
   version="1.1"
   id="svg5"
   inkscape:version="1.1 (c68e22c387, 2021-05-23)"
   sodipodi:docname="full_logo.svg"
   xmlns:inkscape="http://www.inkscape.org/namespaces/inkscape"
   xmlns:sodipodi="http://sodipodi.sourceforge.net/DTD/sodipodi-0.dtd"
   xmlns="http://www.w3.org/2000/svg"
   xmlns:svg="http://www.w3.org/2000/svg">
  <sodipodi:namedview
     id="namedview7"
     pagecolor="#ffffff"
     bordercolor="#666666"
     borderopacity="1.0"
     inkscape:pageshadow="2"
     inkscape:pageopacity="0.0"
     inkscape:pagecheckerboard="0"
     inkscape:document-units="px"
     showgrid="false"
     showguides="true"
     inkscape:guide-bbox="true"
     inkscape:snap-bbox="true"
     inkscape:bbox-paths="true"
     inkscape:bbox-nodes="true"
     inkscape:snap-bbox-edge-midpoints="true"
     inkscape:snap-bbox-midpoints="true"
     inkscape:snap-intersection-paths="true"
     inkscape:snap-object-midpoints="true"
     inkscape:snap-text-baseline="true"
     inkscape:zoom="2.8284271"
     inkscape:cx="209.12683"
     inkscape:cy="58.159533"
     inkscape:window-width="1920"
     inkscape:window-height="1017"
     inkscape:window-x="-8"
     inkscape:window-y="-8"
     inkscape:window-maximized="1"
     inkscape:current-layer="g19126"
     inkscape:snap-page="true"
     width="390.7px"
     height="31.92px" />
  <defs
     id="defs2" />
  <g
     inkscape:label="Layer 1"
     inkscape:groupmode="layer"
     id="layer1">
    <g
       id="g19126"
       transform="translate(-13.192588,-56.962206)">
      <g
         id="g19100">
        <g
           aria-label="functional interiors"
           id="text2211"
           style="font-size:11.2889px;line-height:1.25;font-family:Sylfaen;-inkscape-font-specification:Sylfaen;stroke-width:0.264583" />
      </g>
      <g
         id="g189">
        <g
           id="g144"
           style="font-size:11.2889px;line-height:1.25;font-family:Sylfaen;-inkscape-font-specification:Sylfaen;stroke-width:0.264583"
           transform="translate(-8.6979224e-8)">
          <path
             d="m 14.2989,65.372437 v -6.897519 q 0,-0.688623 0.383823,-1.095023 0.395111,-0.417689 1.117601,-0.417689 0.327378,0 0.632178,0.1016 0.316089,0.09031 0.530579,0.293511 l -0.191912,0.282223 q -0.180622,-0.180623 -0.428978,-0.259645 -0.248356,-0.09031 -0.519289,-0.09031 -0.564445,0 -0.857957,0.316089 -0.293511,0.316089 -0.293511,0.914401 v 1.072446 0.180622 5.599295 z m -1.106312,-5.531562 v -0.327378 h 3.409248 v 0.327378 z"
             style="font-weight:200;font-family:Montserrat;-inkscape-font-specification:'Montserrat Ultra-Light'"
             id="path17669" />
          <path
             d="m 20.146538,65.406303 q -0.756356,0 -1.298224,-0.270933 -0.541867,-0.282223 -0.835378,-0.82409 -0.293512,-0.553156 -0.293512,-1.354668 v -3.443115 h 0.372534 v 3.420537 q 0,1.049868 0.541867,1.591735 0.541867,0.541867 1.524002,0.541867 0.699912,0 1.207912,-0.293511 0.51929,-0.304801 0.790223,-0.846668 0.270934,-0.541867 0.270934,-1.253068 v -3.160892 h 0.372534 v 5.85894 h -0.361245 v -1.636891 l 0.04515,0.1016 q -0.248356,0.72249 -0.857956,1.151468 -0.609601,0.417689 -1.478846,0.417689 z"
             style="font-weight:200;font-family:Montserrat;-inkscape-font-specification:'Montserrat Ultra-Light'"
             id="path17671" />
          <path
             d="m 25.305548,65.372437 v -5.85894 h 0.361244 v 1.64818 l -0.04516,-0.1016 q 0.270934,-0.733779 0.891823,-1.162757 0.632178,-0.428978 1.557868,-0.428978 0.72249,0 1.241779,0.282222 0.530579,0.282223 0.82409,0.835379 0.293511,0.541867 0.293511,1.343379 v 3.443115 H 30.058175 V 61.9519 q 0,-1.049868 -0.530579,-1.591735 -0.530578,-0.541867 -1.490134,-0.541867 -0.733779,0 -1.264357,0.293511 -0.530579,0.293511 -0.812801,0.835379 -0.282223,0.541867 -0.282223,1.264356 v 3.160893 z"
             style="font-weight:200;font-family:Montserrat;-inkscape-font-specification:'Montserrat Ultra-Light'"
             id="path17673" />
          <path
             d="m 35.115582,65.406303 q -0.835378,0 -1.501424,-0.372533 -0.654756,-0.383823 -1.038578,-1.049868 -0.372534,-0.677334 -0.372534,-1.54658 0,-0.869245 0.372534,-1.53529 0.383822,-0.677334 1.038578,-1.049868 0.666046,-0.383822 1.501424,-0.383822 0.666045,0 1.23049,0.259644 0.564445,0.248356 0.936979,0.745068 l -0.282222,0.237067 q -0.327379,-0.462845 -0.82409,-0.677334 -0.485423,-0.214489 -1.061157,-0.214489 -0.722489,0 -1.298223,0.327378 -0.575734,0.327378 -0.914401,0.925689 -0.327378,0.587023 -0.327378,1.365957 0,0.778935 0.327378,1.377246 0.338667,0.587023 0.914401,0.92569 0.575734,0.327378 1.298223,0.327378 0.575734,0 1.061157,-0.214489 0.496711,-0.225778 0.82409,-0.677334 l 0.282222,0.225778 q -0.372534,0.508001 -0.936979,0.756356 -0.564445,0.248356 -1.23049,0.248356 z"
             style="font-weight:200;font-family:Montserrat;-inkscape-font-specification:'Montserrat Ultra-Light'"
             id="path17675" />
          <path
             d="m 40.718137,65.406303 q -0.72249,0 -1.106312,-0.4064 -0.383823,-0.406401 -0.383823,-1.095024 v -5.678316 h 0.372534 v 5.621872 q 0,0.598312 0.293511,0.914401 0.293512,0.316089 0.857957,0.316089 0.575733,0 0.948267,-0.349956 l 0.191911,0.270934 q -0.214489,0.2032 -0.530578,0.3048 -0.316089,0.1016 -0.643467,0.1016 z M 38.12169,59.840875 v -0.327378 h 3.409248 v 0.327378 z"
             style="font-weight:200;font-family:Montserrat;-inkscape-font-specification:'Montserrat Ultra-Light'"
             id="path17677" />
          <path
             d="m 43.551632,65.372437 v -5.85894 h 0.372534 v 5.85894 z m 0.180622,-7.39423 q -0.146755,0 -0.259644,-0.112889 -0.112889,-0.112889 -0.112889,-0.248356 0,-0.158045 0.112889,-0.259645 0.112889,-0.112889 0.259644,-0.112889 0.158045,0 0.259645,0.112889 0.112889,0.1016 0.112889,0.248356 0,0.146756 -0.112889,0.259645 -0.1016,0.112889 -0.259645,0.112889 z"
             style="font-weight:200;font-family:Montserrat;-inkscape-font-specification:'Montserrat Ultra-Light'"
             id="path17679" />
          <path
             d="m 48.642915,65.406303 q -0.82409,0 -1.478846,-0.372533 -0.643468,-0.383823 -1.02729,-1.061157 -0.372534,-0.677334 -0.372534,-1.535291 0,-0.869245 0.372534,-1.53529 0.383822,-0.666045 1.02729,-1.049868 0.654756,-0.383822 1.478846,-0.383822 0.824089,0 1.478846,0.383822 0.654756,0.383823 1.02729,1.049868 0.372533,0.666045 0.372533,1.53529 0,0.857957 -0.372533,1.535291 -0.372534,0.677334 -1.02729,1.061157 -0.654757,0.372533 -1.478846,0.372533 z m 0,-0.338667 q 0.722489,0 1.286934,-0.327378 0.575734,-0.338667 0.891823,-0.936979 0.327379,-0.598311 0.327379,-1.365957 0,-0.778934 -0.327379,-1.365957 -0.316089,-0.598311 -0.891823,-0.925689 -0.564445,-0.327378 -1.286934,-0.327378 -0.711201,0 -1.275646,0.327378 -0.564445,0.327378 -0.903112,0.925689 -0.327378,0.587023 -0.327378,1.365957 0,0.767646 0.327378,1.365957 0.338667,0.598312 0.903112,0.936979 0.564445,0.327378 1.275646,0.327378 z"
             style="font-weight:200;font-family:Montserrat;-inkscape-font-specification:'Montserrat Ultra-Light'"
             id="path17681" />
          <path
             d="m 53.36166,65.372437 v -5.85894 h 0.361245 v 1.64818 l -0.04516,-0.1016 q 0.270934,-0.733779 0.891823,-1.162757 0.632179,-0.428978 1.557869,-0.428978 0.722489,0 1.241779,0.282222 0.530578,0.282223 0.824089,0.835379 0.293512,0.541867 0.293512,1.343379 v 3.443115 h -0.37253 V 61.9519 q 0,-1.049868 -0.530578,-1.591735 -0.530579,-0.541867 -1.490135,-0.541867 -0.733779,0 -1.264357,0.293511 -0.530578,0.293511 -0.812801,0.835379 -0.282222,0.541867 -0.282222,1.264356 v 3.160893 z"
             style="font-weight:200;font-family:Montserrat;-inkscape-font-specification:'Montserrat Ultra-Light'"
             id="path17683" />
          <path
             d="M 64.650539,65.372437 V 64.00648 l -0.01129,-0.203201 v -2.223913 q 0,-0.869245 -0.462845,-1.320801 -0.462845,-0.451556 -1.343379,-0.451556 -0.643468,0 -1.174046,0.225778 -0.530578,0.214489 -0.914401,0.564445 l -0.2032,-0.270934 q 0.417689,-0.395111 1.02729,-0.620889 0.6096,-0.237067 1.275645,-0.237067 1.049868,0 1.603024,0.541867 0.564445,0.530578 0.564445,1.569157 v 3.793071 z m -2.178758,0.03387 q -0.666045,0 -1.140179,-0.2032 -0.462845,-0.2032 -0.711201,-0.575734 -0.248356,-0.383823 -0.248356,-0.869245 0,-0.428978 0.2032,-0.790223 0.203201,-0.372534 0.666046,-0.587023 0.474133,-0.225778 1.264356,-0.225778 h 2.269069 v 0.3048 h -2.269069 q -0.959556,0 -1.365957,0.361245 -0.395111,0.361245 -0.395111,0.914401 0,0.620889 0.462845,0.993423 0.462845,0.361245 1.286935,0.361245 0.8128,0 1.343379,-0.361245 0.530578,-0.372534 0.801512,-1.049868 l 0.124178,0.248356 q -0.225778,0.666045 -0.812801,1.072446 -0.587023,0.4064 -1.478846,0.4064 z"
             style="font-weight:200;font-family:Montserrat;-inkscape-font-specification:'Montserrat Ultra-Light'"
             id="path17685" />
          <path
             d="m 67.450176,65.372437 v -8.376365 h 0.372534 v 8.376365 z"
             style="font-weight:200;font-family:Montserrat;-inkscape-font-specification:'Montserrat Ultra-Light'"
             id="path17687" />
          <path
             d="m 73.18491,65.372437 v -5.85894 h 0.372534 v 5.85894 z m 0.180622,-7.39423 q -0.146756,0 -0.259645,-0.112889 -0.112889,-0.112889 -0.112889,-0.248356 0,-0.158045 0.112889,-0.259645 0.112889,-0.112889 0.259645,-0.112889 0.158045,0 0.259645,0.112889 0.112889,0.1016 0.112889,0.248356 0,0.146756 -0.112889,0.259645 -0.1016,0.112889 -0.259645,0.112889 z"
             style="font-weight:200;font-family:Montserrat;-inkscape-font-specification:'Montserrat Ultra-Light'"
             id="path17689" />
          <path
             d="m 76.063568,65.372437 v -5.85894 h 0.361245 v 1.64818 l -0.04516,-0.1016 q 0.270934,-0.733779 0.891823,-1.162757 0.632179,-0.428978 1.557869,-0.428978 0.722489,0 1.241779,0.282222 0.530578,0.282223 0.824089,0.835379 0.293512,0.541867 0.293512,1.343379 v 3.443115 h -0.37253 V 61.9519 q 0,-1.049868 -0.530578,-1.591735 -0.530578,-0.541867 -1.490135,-0.541867 -0.733779,0 -1.264357,0.293511 -0.530578,0.293511 -0.812801,0.835379 -0.282222,0.541867 -0.282222,1.264356 v 3.160893 z"
             style="font-weight:200;font-family:Montserrat;-inkscape-font-specification:'Montserrat Ultra-Light'"
             id="path17691" />
          <path
             d="m 85.218844,65.406303 q -0.722489,0 -1.106312,-0.4064 -0.383822,-0.406401 -0.383822,-1.095024 v -5.678316 h 0.372533 v 5.621872 q 0,0.598312 0.293512,0.914401 0.293511,0.316089 0.857956,0.316089 0.575734,0 0.948268,-0.349956 l 0.191911,0.270934 q -0.214489,0.2032 -0.530578,0.3048 -0.316089,0.1016 -0.643468,0.1016 z m -2.596447,-5.565428 v -0.327378 h 3.409248 v 0.327378 z"
             style="font-weight:200;font-family:Montserrat;-inkscape-font-specification:'Montserrat Ultra-Light'"
             id="path17693" />
          <path
             d="m 90.132766,65.406303 q -0.869246,0 -1.535291,-0.372533 -0.666045,-0.383823 -1.049867,-1.061157 -0.383823,-0.677334 -0.383823,-1.535291 0,-0.869245 0.349956,-1.53529 0.361245,-0.666045 0.982134,-1.049868 0.632179,-0.383822 1.422402,-0.383822 0.778934,0 1.399823,0.372533 0.632179,0.372534 0.982135,1.038579 0.361245,0.654756 0.361245,1.512713 0,0.02258 0,0.05644 0,0.02258 0,0.04516 h -5.249339 v -0.3048 h 5.046138 l -0.146755,0.180622 q 0,-0.733779 -0.31609,-1.309512 -0.3048,-0.587023 -0.846667,-0.914401 -0.541867,-0.338667 -1.23049,-0.338667 -0.688623,0 -1.23049,0.338667 -0.541868,0.327378 -0.857957,0.914401 -0.3048,0.575733 -0.3048,1.320801 v 0.06773 q 0,0.767646 0.338667,1.365957 0.338667,0.587023 0.92569,0.92569 0.587022,0.327378 1.343379,0.327378 0.575734,0 1.083734,-0.214489 0.51929,-0.214489 0.857957,-0.654756 l 0.237067,0.248356 q -0.395112,0.474134 -0.970846,0.722489 -0.564445,0.237067 -1.207912,0.237067 z"
             style="font-weight:200;font-family:Montserrat;-inkscape-font-specification:'Montserrat Ultra-Light'"
             id="path17695" />
          <path
             d="m 94.501568,65.372437 v -5.85894 h 0.361245 v 1.614313 l -0.03387,-0.1016 q 0.237067,-0.733779 0.82409,-1.140179 0.598311,-0.417689 1.490134,-0.417689 v 0.372533 q -0.02258,0 -0.05644,0 -0.02258,0 -0.04516,0 -1.016001,0 -1.591735,0.643468 -0.575733,0.643467 -0.575733,1.772357 v 3.115737 z"
             style="font-weight:200;font-family:Montserrat;-inkscape-font-specification:'Montserrat Ultra-Light'"
             id="path17697" />
          <path
             d="m 98.775272,65.372437 v -5.85894 h 0.372534 v 5.85894 z m 0.180623,-7.39423 q -0.146756,0 -0.259645,-0.112889 -0.112889,-0.112889 -0.112889,-0.248356 0,-0.158045 0.112889,-0.259645 0.112889,-0.112889 0.259645,-0.112889 0.158044,0 0.259644,0.112889 0.112889,0.1016 0.112889,0.248356 0,0.146756 -0.112889,0.259645 -0.1016,0.112889 -0.259644,0.112889 z"
             style="font-weight:200;font-family:Montserrat;-inkscape-font-specification:'Montserrat Ultra-Light'"
             id="path17699" />
          <path
             d="m 103.86656,65.406303 q -0.82409,0 -1.47885,-0.372533 -0.64346,-0.383823 -1.02729,-1.061157 -0.37253,-0.677334 -0.37253,-1.535291 0,-0.869245 0.37253,-1.53529 0.38383,-0.666045 1.02729,-1.049868 0.65476,-0.383822 1.47885,-0.383822 0.82409,0 1.47884,0.383822 0.65476,0.383823 1.02729,1.049868 0.37254,0.666045 0.37254,1.53529 0,0.857957 -0.37254,1.535291 -0.37253,0.677334 -1.02729,1.061157 -0.65475,0.372533 -1.47884,0.372533 z m 0,-0.338667 q 0.72249,0 1.28693,-0.327378 0.57574,-0.338667 0.89183,-0.936979 0.32737,-0.598311 0.32737,-1.365957 0,-0.778934 -0.32737,-1.365957 -0.31609,-0.598311 -0.89183,-0.925689 -0.56444,-0.327378 -1.28693,-0.327378 -0.7112,0 -1.27565,0.327378 -0.56444,0.327378 -0.90311,0.925689 -0.32738,0.587023 -0.32738,1.365957 0,0.767646 0.32738,1.365957 0.33867,0.598312 0.90311,0.936979 0.56445,0.327378 1.27565,0.327378 z"
             style="font-weight:200;font-family:Montserrat;-inkscape-font-specification:'Montserrat Ultra-Light'"
             id="path17701" />
          <path
             d="m 108.5853,65.372437 v -5.85894 h 0.36125 v 1.614313 l -0.0339,-0.1016 q 0.23707,-0.733779 0.82409,-1.140179 0.59831,-0.417689 1.49013,-0.417689 v 0.372533 q -0.0226,0 -0.0564,0 -0.0226,0 -0.0452,0 -1.016,0 -1.59173,0.643468 -0.57574,0.643467 -0.57574,1.772357 v 3.115737 z"
             style="font-weight:200;font-family:Montserrat;-inkscape-font-specification:'Montserrat Ultra-Light'"
             id="path17703" />
          <path
             d="m 114.3282,65.406303 q -0.72249,0 -1.35467,-0.214489 -0.63218,-0.225778 -0.95955,-0.564445 l 0.18062,-0.293511 q 0.32738,0.293511 0.89182,0.519289 0.56445,0.225778 1.25307,0.225778 0.98213,0 1.41111,-0.338667 0.44027,-0.338667 0.44027,-0.880534 0,-0.395112 -0.21449,-0.62089 -0.21449,-0.225778 -0.56445,-0.349956 -0.34995,-0.124177 -0.77893,-0.191911 -0.41769,-0.07902 -0.84667,-0.169333 -0.42898,-0.1016 -0.77893,-0.259645 -0.34996,-0.169334 -0.56445,-0.462845 -0.21449,-0.293511 -0.21449,-0.778934 0,-0.417689 0.22578,-0.767645 0.23707,-0.349956 0.7112,-0.564445 0.47414,-0.225778 1.20792,-0.225778 0.54186,0 1.08373,0.169333 0.55316,0.158045 0.88053,0.428978 l -0.19191,0.293512 q -0.34995,-0.282223 -0.82409,-0.41769 -0.46284,-0.135466 -0.95955,-0.135466 -0.9144,0 -1.33209,0.349956 -0.41769,0.349955 -0.41769,0.857956 0,0.4064 0.21449,0.654756 0.21449,0.237067 0.56444,0.361245 0.34996,0.124178 0.76765,0.2032 0.42897,0.07902 0.84666,0.169334 0.42898,0.09031 0.77894,0.248356 0.34995,0.158044 0.56444,0.440267 0.21449,0.282222 0.21449,0.767645 0,0.451556 -0.25964,0.812801 -0.24836,0.349956 -0.74507,0.541867 -0.48542,0.191911 -1.23049,0.191911 z"
             style="font-weight:200;font-family:Montserrat;-inkscape-font-specification:'Montserrat Ultra-Light'"
             id="path17705" />
        </g>
        <circle
           style="fill:#ffde59;fill-opacity:1;stroke-width:0.564999"
           id="path17754"
           cx="43.732254"
           cy="57.902531"
           r="0.940323" />
        <circle
           style="fill:#80b26d;fill-opacity:1;stroke-width:0.564999"
           id="path17754-3"
           cx="73.365532"
           cy="57.902531"
           r="0.940323" />
        <circle
           style="fill:#0097b2;stroke-width:0.564999"
           id="path17754-3-7"
           cx="98.955894"
           cy="57.902531"
           r="0.940323" />
      </g>
    </g>
  </g>
</svg>
